<svg id="Capa_1" enable-background="new 0 0 512 512" height="512" viewBox="0 0 512 512" width="512" xmlns="http://www.w3.org/2000/svg"><g><g><g><g><g><g><g><g><g><g><g><g><g><g><g><g><g><circle cx="256" cy="256" fill="#d6e9f8" r="256"/></g></g></g></g></g></g></g></g></g></g></g></g></g></g></g></g><path d="m96.002 390.844 117.649 117.649c13.777 2.294 27.921 3.507 42.349 3.507 138.084 0 250.614-109.332 255.793-246.149l-188.154-188.153z" fill="#b2d7f3"/><g><g><path d="m259.73 217.243-163.628-10.001 163.728-129.589 35.556 85.445z" fill="#8e4dd5"/><path d="m423.458 207.242-163.728 10.001v-139.59z" fill="#613393"/></g><g><path d="m259.73 390.844h-163.728v-183.602h163.728l14.795 91.801z" fill="#fd5"/><path d="m259.73 207.242h163.728v183.602h-163.728z" fill="#fc0"/></g><g><path d="m96.002 349.315h163.728l29.375-21.688-29.375-21.687h-163.728z" fill="#613393"/><path d="m259.73 305.94h163.728v43.375h-163.728z" fill="#4b1b7a"/></g><g><path d="m96.002 290.411h163.728l14.795-21.687-14.795-21.688h-163.728z" fill="#ff5e92"/><path d="m259.73 247.036h163.728v43.375h-163.728z" fill="#ff3c7d"/></g><path d="m298.715 146.64-38.985 38.985c-21.531 0-38.985-17.454-38.985-38.985s17.454-38.985 38.985-38.985z" fill="#ff3c7d"/><path d="m298.715 146.64c0 21.531-17.454 38.985-38.985 38.985v-77.97c21.531 0 38.985 17.454 38.985 38.985z" fill="#d21372"/><g><path d="m311.333 115.24c-13.765 13.765-37.542 12.306-37.542 12.306s-1.459-23.777 12.306-37.542 37.542-12.306 37.542-12.306 1.46 23.777-12.306 37.542z" fill="#00ccb2"/></g><g><path d="m113.242 267.286c-9.521 0-17.239-7.718-17.239-17.239v-42.804l17.239-8.42s17.239 7.718 17.239 17.24v33.984c0 9.52-7.718 17.239-17.239 17.239z" fill="#8e4dd5"/></g><g><path d="m142.815 294.089c-9.521 0-17.24-7.719-17.24-17.24v-68.466c0-9.521 7.718-17.24 17.24-17.24 9.521 0 17.239 7.718 17.239 17.24v68.466c.001 9.521-7.718 17.24-17.239 17.24z" fill="#8e4dd5"/></g></g></g></svg>